HIERARCHY
ROOT Hips
{
  OFFSET 0.0599075 85.7788 4.56537
  CHANNELS 6 Xposition Yposition Zposition Zrotation Xrotation Yrotation
  JOINT Spine
  {
    OFFSET 0 10 0
    CHANNELS 6 Xposition Yposition Zposition Zrotation Xrotation Yrotation
    JOINT Neck
    {
      OFFSET 0 30 0
      CHANNELS 6 Xposition Yposition Zposition Zrotation Xrotation Yrotation
      JOINT Head
      {
        OFFSET 0 8 0
        CHANNELS 6 Xposition Yposition Zposition Zrotation Xrotation Yrotation
        End Site
        {
          OFFSET 0 10 0
        }
      }
    }
    JOINT LeftArm
    {
      OFFSET 15 30 0
      CHANNELS 6 Xposition Yposition Zposition Zrotation Xrotation Yrotation
      JOINT LeftForeArm
      {
        OFFSET 25 0 0
        CHANNELS 6 Xposition Yposition Zposition Zrotation Xrotation Yrotation
        JOINT LeftHand
        {
          OFFSET 25 0 0
          CHANNELS 6 Xposition Yposition Zposition Zrotation Xrotation Yrotation
          End Site
          {
            OFFSET 10 0 0
          }
        }
      }
    }
    JOINT RightArm
    {
      OFFSET -15 30 0
      CHANNELS 6 Xposition Yposition Zposition Zrotation Xrotation Yrotation
      JOINT RightForeArm
      {
        OFFSET -25 0 0
        CHANNELS 6 Xposition Yposition Zposition Zrotation Xrotation Yrotation
        JOINT RightHand
        {
          OFFSET -25 0 0
          CHANNELS 6 Xposition Yposition Zposition Zrotation Xrotation Yrotation
          End Site
          {
            OFFSET -10 0 0
          }
        }
      }
    }
  }
  JOINT LeftUpLeg
  {
    OFFSET 10 -10 0
    CHANNELS 6 Xposition Yposition Zposition Zrotation Xrotation Yrotation
    JOINT LeftLeg
    {
      OFFSET 0 -35 0
      CHANNELS 6 Xposition Yposition Zposition Zrotation Xrotation Yrotation
      JOINT LeftFoot
      {
        OFFSET 0 -40 0
        CHANNELS 6 Xposition Yposition Zposition Zrotation Xrotation Yrotation
        End Site
        {
          OFFSET 0 0 15
        }
      }
    }
  }
  JOINT RightUpLeg
  {
    OFFSET -10 -10 0
    CHANNELS 6 Xposition Yposition Zposition Zrotation Xrotation Yrotation
    JOINT RightLeg
    {
      OFFSET 0 -35 0
      CHANNELS 6 Xposition Yposition Zposition Zrotation Xrotation Yrotation
      JOINT RightFoot
      {
        OFFSET 0 -40 0
        CHANNELS 6 Xposition Yposition Zposition Zrotation Xrotation Yrotation
        End Site
        {
          OFFSET 0 0 15
        }
      }
    }
  }
}
MOTION
Frames:	8
Frame Time:	0.0333333
0.0599075 85.7788 4.56537 -8.8452e-06 8.29921e-07 -3.84216e-06 0 10 0 -5.15876e-06 4.85819e-06 -2.37898e-05 -6.93889e-18 30 0 -0.000396912 -0.000539162 -5.79244e-06 0 8 0 5.12757e-06 1.86932e-05 -3.97766e-06 15 30 0 2.12576e-05 -9.90953e-07 -0.000468843 25 1.42109e-14 8.88178e-16 -0.000145944 8.87136e-05 3.61645e-05 25 0 0 0.000190747 -2.36394e-05 -0.000390322 -15 30 -8.88178e-16 5.3749e-05 2.71451e-05 9.95324e-05 -25 1.42109e-14 0 9.47631e-05 8.3826e-05 -1.49998e-05 -25 0 0 -9.28021e-05 -2.45297e-05 0.000139122 10 -10 0 1.6323 -20.9624 0.0821399 -1.77636e-15 -35 0 -0.495556 39.9127 -0.318624 0 -40 -1.77636e-15 -1.07803 -21.6005 0.369984 -10 -10 0 -2.20468 -20.573 -1.91266e-05 0 -35 0 -5.84006e-05 38.478 0.347241 0 -40 -1.77636e-15 2.20478 -17.905 0.347537 
-49.6864 86.5331 -177.676 0.879933 -0.555978 -6.2414 0 10 -2.84217e-14 2.24475 3.77067 0.881636 0 30 -2.84217e-14 -8.299 -10.4583 -0.290547 0 8 2.84217e-14 8.28349 22.0386 -0.579163 15 30 0 -92.3095 5.65557 2.90572 25 0 2.84217e-14 9.46624 -1.81483 -19.2236 25 0 2.84217e-14 -0.721046 10.5278 -2.90396 -15 30 0 87.9768 12.1618 2.59683 -25 0 0 -13.6793 -3.79975 23.2245 -25 2.84217e-14 -2.84217e-14 0.927854 5.78905 -0.611703 10 -10 2.84217e-14 -2.9269 -24.6157 -0.0627313 0 -35 1.42109e-14 -1.2797 34.5548 -0.0767064 -1.42109e-14 -40 0 3.24507 -8.39267 -3.53084 -10 -10 -2.84217e-14 1.59294 -6.82275 1.78689 1.42109e-14 -35 0 -0.30562 64.4346 -0.435522 0 -40 -2.84217e-14 2.91028 26.8238 0.325543 
-49.7213 86.7292 -174.279 1.17823 -1.28952 -5.77272 0 10 0 1.26056 1.57184 -6.83815 0 30 -2.84217e-14 -7.52688 -2.86164 0.508077 0 8 0 6.6135 17.8757 5.64235 15 30 -2.84217e-14 -91.5492 -1.33828 5.58647 25 0 0 9.91142 -2.05945 -20.259 25 0 2.84217e-14 -0.622148 12.6267 -2.91815 -15 30 -2.84217e-14 88.7443 18.4585 -0.10341 -25 7.10543e-15 -2.84217e-14 -12.3755 -3.14614 21.1886 -25 1.42109e-14 2.84217e-14 0.99113 6.78545 -0.778661 10 -10 0 -3.78664 -21.2169 -0.125975 0 -35 -1.42109e-14 -1.15954 34.4205 -0.210174 7.10543e-15 -40 0 3.27087 -10.736 -3.07958 -10 -10 0 0.868357 -11.9302 0.795293 0 -35 0 0.72154 70.8835 -1.57523 0 -40 0 4.92414 20.0707 -4.00875 
-49.6796 86.8367 -170.487 1.97973 -1.54355 -6.58588 0 10 0 -0.414289 2.61168 -5.82458 1.42109e-14 30 0 -4.3182 -6.20467 0.52036 0 8 0 4.19227 20.9561 5.57458 15 30 0 -89.808 -0.47146 3.72798 25 1.42109e-14 -2.84217e-14 10.2853 -2.27817 -20.9732 25 0 -2.84217e-14 -0.681806 13.1067 -2.82366 -15 30 2.84217e-14 90.0254 17.3884 -0.0343384 -25 -7.10543e-15 0 -12.0931 -2.96763 20.5859 -25 0 0 0.988549 8.23434 -0.7774 10 -10 2.84217e-14 -5.30036 -18.0305 -0.17024 7.10543e-15 -35 0 -1.02557 34.5755 -0.328014 0 -40 0 3.31705 -13.714 -0.95435 -10 -10 0 -0.674437 -17.4257 1.16395 0 -35 0 2.20602 74.3712 -3.1064 0 -40 0 5.56812 15.1177 -6.65662 
-50.69 86.4776 -167.495 2.92838 -0.524467 -13.0988 1.42109e-14 10 0 -2.68219 2.03729 0.317337 -1.42109e-14 30 0 -2.75546 -7.67684 1.78869 0 8 2.84217e-14 4.48672 22.11 4.63927 15 30 2.84217e-14 -87.2661 0.931923 1.93977 25 -1.42109e-14 0 10.52 -2.44344 -21.5675 25 0 0 -0.683523 12.0746 -2.82827 -15 30 0 92.1458 16.483 -0.188067 -25 7.10543e-15 0 -12.2304 -2.96422 20.5829 -25 0 2.84217e-14 1.06376 8.16695 -0.434953 10 -10 0 -4.70447 -16.8639 5.19143 0 -35 0 -0.942935 35.4323 -0.313769 0 -40 2.84217e-14 3.73057 -16.737 1.4658 -10 -10 -2.84217e-14 1.6767 -26.3386 8.58624 0 -35 0 4.35451 76.5501 -5.74888 0 -40 1.42109e-14 5.64313 10.6046 -6.54549 
-49.8493 86.331 -163.872 2.96051 -1.23508 -4.56993 0 10 2.84217e-14 0.171505 0.452459 -8.59917 0 30 2.84217e-14 -7.15654 -1.82123 0.561128 0 8 0 5.43782 18.767 6.32361 15 30 2.84217e-14 -89.0542 3.88538 4.24578 25 0 0 11.2407 -2.8959 -23.4092 25 1.42109e-14 -1.42109e-14 -0.800784 9.77576 -2.88223 -15 30 2.84217e-14 90.4759 15.3159 -3.41117 -25 0 -5.68434e-14 -12.1585 -3.03731 20.8574 -25 1.42109e-14 0 0.975926 6.73432 -0.419778 10 -10 2.84217e-14 -7.00673 -13.8977 -0.529887 7.10543e-15 -35 2.84217e-14 -0.834601 35.4559 -0.445902 0 -40 0 3.81864 -18.3646 -0.676812 -10 -10 2.84217e-14 -2.82023 -27.9359 -0.255455 -1.42109e-14 -35 0 3.67524 73.8695 -5.76883 0 -40 0 5.02492 -0.054026 -5.45363 
-49.9955 85.9067 -160.615 3.60994 -0.887353 -3.27728 0 10 0 -2.04952 3.15328 -7.57043 1.42109e-14 30 0 -2.84835 -7.97206 -0.47194 1.42109e-14 8 0 3.87852 22.4521 4.64163 15 30 2.84217e-14 -85.5244 7.42719 0.186003 25 0 0 11.5398 -3.14042 -23.9345 25 0 -1.42109e-14 -0.647068 9.81743 -2.80076 -15 30 0 92.2705 11.8325 -1.7266 -25 1.42109e-14 0 -12.1191 -2.97114 20.6566 -25 0 0 0.913658 6.91452 -0.85507 10 -10 0 -7.82076 -12.2805 -0.822572 -7.10543e-15 -35 0 -0.74699 36.1423 -0.490785 0 -40 0 3.81609 -20.7317 -1.07283 -10 -10 2.84217e-14 -3.90648 -31.7487 -1.17694 0 -35 1.42109e-14 2.91994 69.1727 -5.35386 0 -40 -2.84217e-14 3.68266 -6.96689 -5.54866 
-50.2172 85.6386 -157.342 4.03797 -0.217557 -2.62177 7.10543e-15 10 2.84217e-14 -2.54389 3.62591 -7.26811 1.42109e-14 30 -2.84217e-14 -2.37664 -9.40986 -0.889765 0 8 -2.84217e-14 4.40305 22.1677 3.79167 15 30 -2.84217e-14 -83.7387 10.514 -1.90809 25 0 0 12.1653 -3.50494 -25.2188 25 0 2.84217e-14 -0.665367 9.18415 -2.93366 -15 30 0 92.8566 11.0186 -1.74751 -25 -7.10543e-15 0 -12.3686 -3.09795 21.1024 -25 1.42109e-14 -2.84217e-14 0.914066 6.81163 -0.839819 10 -10 0 -8.13145 -9.84818 -0.360261 7.10543e-15 -35 0 -0.679821 34.8382 -0.453546 -7.10543e-15 -40 0 4.6102 -22.5024 -1.33543 -10 -10 0 -4.34419 -34.2543 -1.41617 0 -35 1.42109e-14 1.90238 60.4891 -4.10217 0 -40 0 2.0928 -9.74201 -7.45345 
